<?xml version="1.0" encoding="UTF-8"?>
<svg id="Camada_2" data-name="Camada 2" xmlns="http://www.w3.org/2000/svg" viewBox="0 0 23.35 25.17">
  <defs>
    <style>
      .cls-1 {
        fill: #fff;
      }
    </style>
  </defs>
  <g id="Camada_1-2" data-name="Camada 1">
    <g>
      <path class="cls-1" d="m0,7.48c0-2.06.74-3.81,2.2-5.28C3.67.73,5.44,0,7.51,0h15.84s0,6.67,0,6.67H7.51c-.23,0-.43.08-.59.24-.15.15-.23.34-.24.56H0s0,0,0,0Z"/>
      <path class="cls-1" d="m0,8.41v-.03s6.67,0,6.67,0c0,0,0,.02,0,.03,0,.23.08.43.24.59.16.16.36.24.59.24h8.34c2.07,0,3.84.73,5.3,2.2,1.48,1.48,2.22,3.27,2.2,5.36h0s-6.67,0-6.67,0c0-.02,0-.04,0-.06,0-.23-.08-.43-.24-.59-.16-.16-.36-.24-.59-.24H7.51c-2.07,0-3.84-.73-5.3-2.2C.95,12.46.23,10.99.05,9.3.02,9.01,0,8.71,0,8.41h0Z"/>
      <path class="cls-1" d="m0,25.17v-6.67s15.84,0,15.84,0c.23,0,.43-.08.59-.24.15-.15.23-.33.24-.53h6.67c0,.27-.02.54-.04.8-.18,1.7-.9,3.19-2.16,4.45-1.47,1.47-3.23,2.2-5.3,2.2H0s0,0,0,0Z"/>
    </g>
  </g>
</svg>